<mxfile host="app.diagrams.net" modified="2021-04-09T23:21:34.985Z" agent="5.0 (X11; Linux x86_64) AppleWebKit/537.36 (KHTML, like Gecko) Chrome/89.0.4389.90 Safari/537.36" etag="sQldgmmn_CfdRTSLPBUL" version="14.5.10" type="github" pages="5">
  <diagram id="o0i4Dp3lgyqQpPlW8ukg" name="Event Reception">
    <mxGraphModel dx="1385" dy="921" grid="1" gridSize="10" guides="1" tooltips="1" connect="1" arrows="1" fold="1" page="1" pageScale="1" pageWidth="1100" pageHeight="850" math="0" shadow="0">
      <root>
        <mxCell id="0" />
        <mxCell id="1" parent="0" />
        <mxCell id="en7_ZEx5tbEL0YKgw_72-20" style="edgeStyle=orthogonalEdgeStyle;rounded=0;orthogonalLoop=1;jettySize=auto;html=1;exitX=1;exitY=0.5;exitDx=0;exitDy=0;exitPerimeter=0;entryX=0.194;entryY=0.541;entryDx=0;entryDy=0;entryPerimeter=0;" parent="1" source="en7_ZEx5tbEL0YKgw_72-2" target="en7_ZEx5tbEL0YKgw_72-19" edge="1">
          <mxGeometry relative="1" as="geometry" />
        </mxCell>
        <mxCell id="en7_ZEx5tbEL0YKgw_72-28" style="edgeStyle=orthogonalEdgeStyle;rounded=0;orthogonalLoop=1;jettySize=auto;html=1;exitX=0.5;exitY=1;exitDx=0;exitDy=0;exitPerimeter=0;entryX=1;entryY=0.5;entryDx=0;entryDy=0;entryPerimeter=0;" parent="1" source="en7_ZEx5tbEL0YKgw_72-2" target="en7_ZEx5tbEL0YKgw_72-27" edge="1">
          <mxGeometry relative="1" as="geometry" />
        </mxCell>
        <mxCell id="en7_ZEx5tbEL0YKgw_72-2" value="&lt;b&gt;Has IPOS flag?&lt;/b&gt;" style="strokeWidth=2;html=1;shape=mxgraph.flowchart.decision;whiteSpace=wrap;" parent="1" vertex="1">
          <mxGeometry x="370" y="131" width="110" height="110" as="geometry" />
        </mxCell>
        <mxCell id="en7_ZEx5tbEL0YKgw_72-8" value="Yes" style="text;html=1;align=center;verticalAlign=middle;resizable=0;points=[];autosize=1;strokeColor=none;" parent="1" vertex="1">
          <mxGeometry x="490" y="162" width="40" height="20" as="geometry" />
        </mxCell>
        <mxCell id="en7_ZEx5tbEL0YKgw_72-18" style="edgeStyle=orthogonalEdgeStyle;rounded=0;orthogonalLoop=1;jettySize=auto;html=1;entryX=0;entryY=0.5;entryDx=0;entryDy=0;entryPerimeter=0;" parent="1" source="en7_ZEx5tbEL0YKgw_72-15" target="en7_ZEx5tbEL0YKgw_72-2" edge="1">
          <mxGeometry relative="1" as="geometry" />
        </mxCell>
        <object label="" id="en7_ZEx5tbEL0YKgw_72-15">
          <mxCell style="shape=image;html=1;verticalAlign=top;verticalLabelPosition=bottom;labelBackgroundColor=#ffffff;imageAspect=0;aspect=fixed;image=https://cdn2.iconfinder.com/data/icons/thin-line-icons-for-seo-and-development-1/64/SEO_site_map-128.png;direction=north;" parent="1" vertex="1">
            <mxGeometry x="190" y="132" width="108" height="108" as="geometry" />
          </mxCell>
        </object>
        <mxCell id="en7_ZEx5tbEL0YKgw_72-16" value="&lt;b&gt;Map event response&lt;/b&gt;" style="text;html=1;align=center;verticalAlign=middle;resizable=0;points=[];autosize=1;strokeColor=none;" parent="1" vertex="1">
          <mxGeometry x="179" y="112" width="130" height="20" as="geometry" />
        </mxCell>
        <mxCell id="en7_ZEx5tbEL0YKgw_72-19" value="" style="html=1;dashed=0;whitespace=wrap;fillColor=#2875E2;strokeColor=#ffffff;points=[[0.005,0.63,0],[0.1,0.2,0],[0.9,0.2,0],[0.5,0,0],[0.995,0.63,0],[0.72,0.99,0],[0.5,1,0],[0.28,0.99,0]];shape=mxgraph.kubernetes.icon;prIcon=api" parent="1" vertex="1">
          <mxGeometry x="521" y="133" width="159" height="98" as="geometry" />
        </mxCell>
        <mxCell id="en7_ZEx5tbEL0YKgw_72-21" value="&lt;b&gt;Query Item on IPOS&lt;/b&gt;" style="text;html=1;align=center;verticalAlign=middle;resizable=0;points=[];autosize=1;strokeColor=none;" parent="1" vertex="1">
          <mxGeometry x="528" y="110" width="130" height="20" as="geometry" />
        </mxCell>
        <mxCell id="en7_ZEx5tbEL0YKgw_72-30" style="edgeStyle=orthogonalEdgeStyle;rounded=0;orthogonalLoop=1;jettySize=auto;html=1;exitX=1;exitY=0.5;exitDx=0;exitDy=0;exitPerimeter=0;entryX=-0.03;entryY=0.62;entryDx=0;entryDy=0;entryPerimeter=0;" parent="1" source="en7_ZEx5tbEL0YKgw_72-22" target="en7_ZEx5tbEL0YKgw_72-34" edge="1">
          <mxGeometry relative="1" as="geometry">
            <mxPoint x="930" y="190" as="targetPoint" />
          </mxGeometry>
        </mxCell>
        <mxCell id="en7_ZEx5tbEL0YKgw_72-32" style="edgeStyle=orthogonalEdgeStyle;rounded=0;orthogonalLoop=1;jettySize=auto;html=1;exitX=0.5;exitY=1;exitDx=0;exitDy=0;exitPerimeter=0;entryX=0.5;entryY=0;entryDx=0;entryDy=0;" parent="1" source="en7_ZEx5tbEL0YKgw_72-22" target="en7_ZEx5tbEL0YKgw_72-35" edge="1">
          <mxGeometry relative="1" as="geometry">
            <mxPoint x="805" y="292" as="targetPoint" />
          </mxGeometry>
        </mxCell>
        <mxCell id="en7_ZEx5tbEL0YKgw_72-22" value="&lt;b&gt;Item exists ?&lt;/b&gt;" style="strokeWidth=2;html=1;shape=mxgraph.flowchart.decision;whiteSpace=wrap;" parent="1" vertex="1">
          <mxGeometry x="755" y="117" width="110" height="110" as="geometry" />
        </mxCell>
        <mxCell id="GxGGU-1-F8nbnf28Y1kt-2" style="edgeStyle=orthogonalEdgeStyle;rounded=0;orthogonalLoop=1;jettySize=auto;html=1;entryX=0.5;entryY=0;entryDx=0;entryDy=0;entryPerimeter=0;fontSize=11;" edge="1" parent="1" source="en7_ZEx5tbEL0YKgw_72-23" target="GxGGU-1-F8nbnf28Y1kt-1">
          <mxGeometry relative="1" as="geometry" />
        </mxCell>
        <mxCell id="en7_ZEx5tbEL0YKgw_72-23" value="" style="whiteSpace=wrap;html=1;aspect=fixed;dashed=1;fillColor=none;" parent="1" vertex="1">
          <mxGeometry x="532" y="100" width="140" height="140" as="geometry" />
        </mxCell>
        <mxCell id="en7_ZEx5tbEL0YKgw_72-26" value="" style="endArrow=classic;html=1;entryX=0;entryY=0.5;entryDx=0;entryDy=0;entryPerimeter=0;" parent="1" source="en7_ZEx5tbEL0YKgw_72-23" target="en7_ZEx5tbEL0YKgw_72-22" edge="1">
          <mxGeometry width="50" height="50" relative="1" as="geometry">
            <mxPoint x="680" y="182" as="sourcePoint" />
            <mxPoint x="750" y="183" as="targetPoint" />
          </mxGeometry>
        </mxCell>
        <mxCell id="en7_ZEx5tbEL0YKgw_72-27" value="Stop process" style="strokeWidth=2;html=1;shape=mxgraph.flowchart.terminator;whiteSpace=wrap;fillColor=#dae8fc;strokeColor=#6c8ebf;" parent="1" vertex="1">
          <mxGeometry x="179" y="272" width="100" height="60" as="geometry" />
        </mxCell>
        <mxCell id="en7_ZEx5tbEL0YKgw_72-29" value="No" style="text;html=1;align=center;verticalAlign=middle;resizable=0;points=[];autosize=1;strokeColor=none;" parent="1" vertex="1">
          <mxGeometry x="325" y="282" width="30" height="20" as="geometry" />
        </mxCell>
        <mxCell id="en7_ZEx5tbEL0YKgw_72-31" value="Yes" style="text;html=1;align=center;verticalAlign=middle;resizable=0;points=[];autosize=1;strokeColor=none;" parent="1" vertex="1">
          <mxGeometry x="890" y="142" width="40" height="20" as="geometry" />
        </mxCell>
        <mxCell id="en7_ZEx5tbEL0YKgw_72-33" value="No" style="text;html=1;align=center;verticalAlign=middle;resizable=0;points=[];autosize=1;strokeColor=none;" parent="1" vertex="1">
          <mxGeometry x="810" y="241" width="30" height="20" as="geometry" />
        </mxCell>
        <UserObject label="Update Item on IPOS" link="data:page/id,IQhEYUkvPIBrb2xpnDAF" id="en7_ZEx5tbEL0YKgw_72-34">
          <mxCell style="rounded=1;whiteSpace=wrap;html=1;absoluteArcSize=1;arcSize=14;strokeWidth=2;fillColor=#ffffff;gradientColor=none;" parent="1" vertex="1">
            <mxGeometry x="970" y="110" width="100" height="100" as="geometry" />
          </mxCell>
        </UserObject>
        <UserObject label="Create Item On IPOS" link="data:page/id,-hxGaOAN9VUWkJ7AieRJ" id="en7_ZEx5tbEL0YKgw_72-35">
          <mxCell style="rounded=1;whiteSpace=wrap;html=1;absoluteArcSize=1;arcSize=14;strokeWidth=2;fillColor=#ffffff;gradientColor=none;" parent="1" vertex="1">
            <mxGeometry x="760" y="302" width="100" height="100" as="geometry" />
          </mxCell>
        </UserObject>
        <mxCell id="5x3o5FLBEJ_tOcMoRWK3-3" style="edgeStyle=orthogonalEdgeStyle;rounded=0;orthogonalLoop=1;jettySize=auto;html=1;entryX=0.5;entryY=0;entryDx=0;entryDy=0;" parent="1" source="5x3o5FLBEJ_tOcMoRWK3-1" target="en7_ZEx5tbEL0YKgw_72-15" edge="1">
          <mxGeometry relative="1" as="geometry" />
        </mxCell>
        <mxCell id="5x3o5FLBEJ_tOcMoRWK3-1" value="" style="outlineConnect=0;fontColor=#232F3E;gradientColor=none;fillColor=#BC1356;strokeColor=none;dashed=0;verticalLabelPosition=bottom;verticalAlign=top;align=center;html=1;fontSize=12;fontStyle=0;aspect=fixed;pointerEvents=1;shape=mxgraph.aws4.eventbridge_saas_partner_event_bus_resource;" parent="1" vertex="1">
          <mxGeometry x="30" y="113" width="89" height="89" as="geometry" />
        </mxCell>
        <mxCell id="5x3o5FLBEJ_tOcMoRWK3-2" value="&lt;b&gt;Item updated event&lt;/b&gt;" style="text;html=1;align=center;verticalAlign=middle;resizable=0;points=[];autosize=1;strokeColor=none;" parent="1" vertex="1">
          <mxGeometry x="14.5" y="202" width="120" height="20" as="geometry" />
        </mxCell>
        <mxCell id="GxGGU-1-F8nbnf28Y1kt-1" value="" style="verticalLabelPosition=bottom;html=1;verticalAlign=top;align=center;strokeColor=none;fillColor=#00BEF2;shape=mxgraph.azure.code_file;pointerEvents=1;fontSize=11;" vertex="1" parent="1">
          <mxGeometry x="575.63" y="321" width="51.75" height="60" as="geometry" />
        </mxCell>
        <mxCell id="GxGGU-1-F8nbnf28Y1kt-3" value="Save temporally &lt;br&gt;IPOS payload response" style="text;html=1;align=center;verticalAlign=middle;resizable=0;points=[];autosize=1;strokeColor=none;fontSize=11;" vertex="1" parent="1">
          <mxGeometry x="542" y="390" width="130" height="30" as="geometry" />
        </mxCell>
      </root>
    </mxGraphModel>
  </diagram>
  <diagram id="-hxGaOAN9VUWkJ7AieRJ" name="Item Creation Queue">
    <mxGraphModel dx="1385" dy="921" grid="1" gridSize="10" guides="1" tooltips="1" connect="1" arrows="1" fold="1" page="1" pageScale="1" pageWidth="1100" pageHeight="850" math="0" shadow="0">
      <root>
        <mxCell id="62aNgajdweEa2CIghpTw-0" />
        <mxCell id="62aNgajdweEa2CIghpTw-1" parent="62aNgajdweEa2CIghpTw-0" />
        <mxCell id="JhQlkjjX7iHYEp0X2-3j-25" style="edgeStyle=orthogonalEdgeStyle;rounded=0;orthogonalLoop=1;jettySize=auto;html=1;exitX=0.5;exitY=1;exitDx=0;exitDy=0;fontSize=11;" parent="62aNgajdweEa2CIghpTw-1" source="yfWFt9iNagmqOl-nRvkC-0" target="JhQlkjjX7iHYEp0X2-3j-23" edge="1">
          <mxGeometry relative="1" as="geometry" />
        </mxCell>
        <object label="" id="yfWFt9iNagmqOl-nRvkC-0">
          <mxCell style="shape=image;html=1;verticalAlign=top;verticalLabelPosition=bottom;labelBackgroundColor=#ffffff;imageAspect=0;aspect=fixed;image=https://cdn2.iconfinder.com/data/icons/thin-line-icons-for-seo-and-development-1/64/SEO_site_map-128.png;direction=north;" parent="62aNgajdweEa2CIghpTw-1" vertex="1">
            <mxGeometry x="29" y="64" width="90" height="90" as="geometry" />
          </mxCell>
        </object>
        <mxCell id="yfWFt9iNagmqOl-nRvkC-1" value="&lt;font style=&quot;font-size: 11px&quot;&gt;Mapped data from Event&lt;/font&gt;" style="text;html=1;align=center;verticalAlign=middle;resizable=0;points=[];autosize=1;strokeColor=none;" parent="62aNgajdweEa2CIghpTw-1" vertex="1">
          <mxGeometry x="24" y="44" width="140" height="20" as="geometry" />
        </mxCell>
        <mxCell id="yfWFt9iNagmqOl-nRvkC-6" style="edgeStyle=orthogonalEdgeStyle;rounded=0;orthogonalLoop=1;jettySize=auto;html=1;exitX=1;exitY=0.5;exitDx=0;exitDy=0;entryX=0;entryY=0.5;entryDx=0;entryDy=0;" parent="62aNgajdweEa2CIghpTw-1" source="yfWFt9iNagmqOl-nRvkC-2" target="yfWFt9iNagmqOl-nRvkC-8" edge="1">
          <mxGeometry relative="1" as="geometry">
            <mxPoint x="495" y="109" as="targetPoint" />
          </mxGeometry>
        </mxCell>
        <mxCell id="yfWFt9iNagmqOl-nRvkC-2" value="" style="aspect=fixed;perimeter=ellipsePerimeter;html=1;align=center;shadow=0;dashed=0;fontColor=#4277BB;labelBackgroundColor=#ffffff;fontSize=12;spacingTop=3;image;image=img/lib/ibm/applications/saas_applications.svg;fillColor=#ffffff;gradientColor=none;" parent="62aNgajdweEa2CIghpTw-1" vertex="1">
          <mxGeometry x="335" y="74" width="70" height="70" as="geometry" />
        </mxCell>
        <mxCell id="yfWFt9iNagmqOl-nRvkC-4" value="&lt;font style=&quot;font-size: 11px&quot;&gt;Get Item Cost Values&lt;/font&gt;" style="text;html=1;align=center;verticalAlign=middle;resizable=0;points=[];autosize=1;strokeColor=none;" parent="62aNgajdweEa2CIghpTw-1" vertex="1">
          <mxGeometry x="330" y="45" width="120" height="20" as="geometry" />
        </mxCell>
        <mxCell id="yfWFt9iNagmqOl-nRvkC-7" value="&lt;b&gt;&lt;font style=&quot;font-size: 11px&quot;&gt;Prepare request payload for IPOS&lt;/font&gt;&lt;/b&gt;" style="text;html=1;align=center;verticalAlign=middle;resizable=0;points=[];autosize=1;strokeColor=none;" parent="62aNgajdweEa2CIghpTw-1" vertex="1">
          <mxGeometry x="505" y="45" width="190" height="20" as="geometry" />
        </mxCell>
        <mxCell id="yfWFt9iNagmqOl-nRvkC-8" value="" style="rounded=0;whiteSpace=wrap;html=1;dashed=1;fillColor=none;gradientColor=none;" parent="62aNgajdweEa2CIghpTw-1" vertex="1">
          <mxGeometry x="499" y="69" width="570" height="150" as="geometry" />
        </mxCell>
        <mxCell id="exs1YMWYc9pj6WjkqiMj-4" style="edgeStyle=orthogonalEdgeStyle;rounded=0;orthogonalLoop=1;jettySize=auto;html=1;exitX=0.995;exitY=0.63;exitDx=0;exitDy=0;exitPerimeter=0;entryX=-0.089;entryY=0.757;entryDx=0;entryDy=0;entryPerimeter=0;" parent="62aNgajdweEa2CIghpTw-1" source="exs1YMWYc9pj6WjkqiMj-0" target="exs1YMWYc9pj6WjkqiMj-2" edge="1">
          <mxGeometry relative="1" as="geometry" />
        </mxCell>
        <mxCell id="exs1YMWYc9pj6WjkqiMj-0" value="" style="html=1;dashed=0;whitespace=wrap;fillColor=#2875E2;strokeColor=#ffffff;points=[[0.005,0.63,0],[0.1,0.2,0],[0.9,0.2,0],[0.5,0,0],[0.995,0.63,0],[0.72,0.99,0],[0.5,1,0],[0.28,0.99,0]];shape=mxgraph.kubernetes.icon;prIcon=api" parent="62aNgajdweEa2CIghpTw-1" vertex="1">
          <mxGeometry x="515" y="105" width="70" height="78" as="geometry" />
        </mxCell>
        <mxCell id="exs1YMWYc9pj6WjkqiMj-1" value="&lt;div style=&quot;text-align: left&quot;&gt;&lt;span style=&quot;font-size: 9px&quot;&gt;Query IPOS&lt;/span&gt;&lt;/div&gt;&lt;font style=&quot;font-size: 9px&quot;&gt;categories collection&lt;/font&gt;" style="text;html=1;align=center;verticalAlign=middle;resizable=0;points=[];autosize=1;strokeColor=none;" parent="62aNgajdweEa2CIghpTw-1" vertex="1">
          <mxGeometry x="506.5" y="78" width="100" height="40" as="geometry" />
        </mxCell>
        <mxCell id="exs1YMWYc9pj6WjkqiMj-2" value="" style="aspect=fixed;pointerEvents=1;shadow=0;dashed=0;html=1;strokeColor=none;labelPosition=center;verticalLabelPosition=bottom;verticalAlign=top;align=center;fillColor=#00188D;shape=mxgraph.azure.code_file" parent="62aNgajdweEa2CIghpTw-1" vertex="1">
          <mxGeometry x="633" y="116" width="47" height="50" as="geometry" />
        </mxCell>
        <mxCell id="exs1YMWYc9pj6WjkqiMj-5" value="Create tmp document &lt;br&gt;for collection" style="text;html=1;align=center;verticalAlign=middle;resizable=0;points=[];autosize=1;strokeColor=none;fontSize=9;" parent="62aNgajdweEa2CIghpTw-1" vertex="1">
          <mxGeometry x="606.5" y="168" width="100" height="30" as="geometry" />
        </mxCell>
        <object label="" id="exs1YMWYc9pj6WjkqiMj-6">
          <mxCell style="shape=image;html=1;verticalAlign=top;verticalLabelPosition=bottom;labelBackgroundColor=#ffffff;imageAspect=0;aspect=fixed;image=https://cdn2.iconfinder.com/data/icons/thin-line-icons-for-seo-and-development-1/64/SEO_site_map-128.png;direction=north;" parent="62aNgajdweEa2CIghpTw-1" vertex="1">
            <mxGeometry x="735" y="112" width="58" height="58" as="geometry" />
          </mxCell>
        </object>
        <mxCell id="exs1YMWYc9pj6WjkqiMj-7" value="" style="endArrow=classic;html=1;fontSize=9;exitX=1;exitY=0.5;exitDx=0;exitDy=0;exitPerimeter=0;entryX=0.5;entryY=0;entryDx=0;entryDy=0;" parent="62aNgajdweEa2CIghpTw-1" source="exs1YMWYc9pj6WjkqiMj-2" target="exs1YMWYc9pj6WjkqiMj-6" edge="1">
          <mxGeometry width="50" height="50" relative="1" as="geometry">
            <mxPoint x="735" y="284" as="sourcePoint" />
            <mxPoint x="785" y="234" as="targetPoint" />
          </mxGeometry>
        </mxCell>
        <mxCell id="exs1YMWYc9pj6WjkqiMj-8" value="Filter categories entity&lt;br&gt;by category name" style="text;html=1;align=center;verticalAlign=middle;resizable=0;points=[];autosize=1;strokeColor=none;fontSize=9;" parent="62aNgajdweEa2CIghpTw-1" vertex="1">
          <mxGeometry x="722" y="166" width="100" height="30" as="geometry" />
        </mxCell>
        <object label="" id="JhQlkjjX7iHYEp0X2-3j-4">
          <mxCell style="shape=image;html=1;verticalAlign=top;verticalLabelPosition=bottom;labelBackgroundColor=#ffffff;imageAspect=0;aspect=fixed;image=https://cdn2.iconfinder.com/data/icons/thin-line-icons-for-seo-and-development-1/64/SEO_site_map-128.png;direction=north;" parent="62aNgajdweEa2CIghpTw-1" vertex="1">
            <mxGeometry x="865" y="112" width="58" height="58" as="geometry" />
          </mxCell>
        </object>
        <mxCell id="JhQlkjjX7iHYEp0X2-3j-6" value="" style="endArrow=classic;html=1;fontSize=9;exitX=0.5;exitY=1;exitDx=0;exitDy=0;entryX=0.5;entryY=0;entryDx=0;entryDy=0;" parent="62aNgajdweEa2CIghpTw-1" source="exs1YMWYc9pj6WjkqiMj-6" target="JhQlkjjX7iHYEp0X2-3j-4" edge="1">
          <mxGeometry width="50" height="50" relative="1" as="geometry">
            <mxPoint x="815" y="255" as="sourcePoint" />
            <mxPoint x="865" y="205" as="targetPoint" />
          </mxGeometry>
        </mxCell>
        <mxCell id="JhQlkjjX7iHYEp0X2-3j-7" value="Map IPOS Payload" style="text;html=1;align=center;verticalAlign=middle;resizable=0;points=[];autosize=1;strokeColor=none;fontSize=9;" parent="62aNgajdweEa2CIghpTw-1" vertex="1">
          <mxGeometry x="849" y="168" width="90" height="20" as="geometry" />
        </mxCell>
        <mxCell id="JhQlkjjX7iHYEp0X2-3j-8" value="" style="aspect=fixed;pointerEvents=1;shadow=0;dashed=0;html=1;strokeColor=none;labelPosition=center;verticalLabelPosition=bottom;verticalAlign=top;align=center;fillColor=#00188D;shape=mxgraph.azure.code_file" parent="62aNgajdweEa2CIghpTw-1" vertex="1">
          <mxGeometry x="985" y="116" width="47" height="50" as="geometry" />
        </mxCell>
        <mxCell id="JhQlkjjX7iHYEp0X2-3j-9" value="Save&lt;br&gt;Payload Document" style="text;html=1;align=center;verticalAlign=middle;resizable=0;points=[];autosize=1;strokeColor=none;fontSize=9;" parent="62aNgajdweEa2CIghpTw-1" vertex="1">
          <mxGeometry x="963.5" y="166" width="90" height="30" as="geometry" />
        </mxCell>
        <mxCell id="JhQlkjjX7iHYEp0X2-3j-10" value="" style="endArrow=classic;html=1;fontSize=9;exitX=0.5;exitY=1;exitDx=0;exitDy=0;entryX=0;entryY=0.5;entryDx=0;entryDy=0;entryPerimeter=0;" parent="62aNgajdweEa2CIghpTw-1" source="JhQlkjjX7iHYEp0X2-3j-4" target="JhQlkjjX7iHYEp0X2-3j-8" edge="1">
          <mxGeometry width="50" height="50" relative="1" as="geometry">
            <mxPoint x="935" y="275" as="sourcePoint" />
            <mxPoint x="985" y="225" as="targetPoint" />
          </mxGeometry>
        </mxCell>
        <UserObject label="" link="data:page/id,rQDwCTbf4l8l-2NBMbtu" id="JhQlkjjX7iHYEp0X2-3j-11">
          <mxCell style="points=[[0,0,0],[0.25,0,0],[0.5,0,0],[0.75,0,0],[1,0,0],[0,1,0],[0.25,1,0],[0.5,1,0],[0.75,1,0],[1,1,0],[0,0.25,0],[0,0.5,0],[0,0.75,0],[1,0.25,0],[1,0.5,0],[1,0.75,0]];outlineConnect=0;fontColor=#232F3E;gradientColor=#F34482;gradientDirection=north;fillColor=#BC1356;strokeColor=#ffffff;dashed=0;verticalLabelPosition=bottom;verticalAlign=top;align=center;html=1;fontSize=12;fontStyle=0;aspect=fixed;shape=mxgraph.aws4.resourceIcon;resIcon=mxgraph.aws4.sqs;" parent="62aNgajdweEa2CIghpTw-1" vertex="1">
            <mxGeometry x="759" y="394" width="78" height="78" as="geometry" />
          </mxCell>
        </UserObject>
        <mxCell id="JhQlkjjX7iHYEp0X2-3j-13" value="&lt;span style=&quot;font-size: 11px&quot;&gt;Queue items &lt;br&gt;to be added&lt;/span&gt;" style="text;html=1;align=center;verticalAlign=middle;resizable=0;points=[];autosize=1;strokeColor=none;fontSize=11;" parent="62aNgajdweEa2CIghpTw-1" vertex="1">
          <mxGeometry x="680" y="404" width="80" height="30" as="geometry" />
        </mxCell>
        <mxCell id="JhQlkjjX7iHYEp0X2-3j-16" value="Notify users about &lt;br&gt;item propagation" style="text;html=1;align=center;verticalAlign=middle;resizable=0;points=[];autosize=1;strokeColor=none;fontSize=11;" parent="62aNgajdweEa2CIghpTw-1" vertex="1">
          <mxGeometry x="659" y="274" width="100" height="30" as="geometry" />
        </mxCell>
        <mxCell id="JhQlkjjX7iHYEp0X2-3j-19" value="" style="points=[[0,0,0],[0.25,0,0],[0.5,0,0],[0.75,0,0],[1,0,0],[0,1,0],[0.25,1,0],[0.5,1,0],[0.75,1,0],[1,1,0],[0,0.25,0],[0,0.5,0],[0,0.75,0],[1,0.25,0],[1,0.5,0],[1,0.75,0]];outlineConnect=0;fontColor=#232F3E;gradientColor=#F34482;gradientDirection=north;fillColor=#BC1356;strokeColor=#ffffff;dashed=0;verticalLabelPosition=bottom;verticalAlign=top;align=center;html=1;fontSize=12;fontStyle=0;aspect=fixed;shape=mxgraph.aws4.resourceIcon;resIcon=mxgraph.aws4.sns;" parent="62aNgajdweEa2CIghpTw-1" vertex="1">
          <mxGeometry x="759" y="264" width="78" height="78" as="geometry" />
        </mxCell>
        <mxCell id="JhQlkjjX7iHYEp0X2-3j-26" style="edgeStyle=orthogonalEdgeStyle;rounded=0;orthogonalLoop=1;jettySize=auto;html=1;exitX=0.5;exitY=1;exitDx=0;exitDy=0;fontSize=11;" parent="62aNgajdweEa2CIghpTw-1" source="JhQlkjjX7iHYEp0X2-3j-23" target="yfWFt9iNagmqOl-nRvkC-2" edge="1">
          <mxGeometry relative="1" as="geometry">
            <mxPoint x="339" y="109" as="targetPoint" />
          </mxGeometry>
        </mxCell>
        <object label="" id="JhQlkjjX7iHYEp0X2-3j-23">
          <mxCell style="shape=image;html=1;verticalAlign=top;verticalLabelPosition=bottom;labelBackgroundColor=#ffffff;imageAspect=0;aspect=fixed;image=https://cdn2.iconfinder.com/data/icons/thin-line-icons-for-seo-and-development-1/64/SEO_site_map-128.png;direction=north;" parent="62aNgajdweEa2CIghpTw-1" vertex="1">
            <mxGeometry x="189" y="64" width="90" height="90" as="geometry" />
          </mxCell>
        </object>
        <mxCell id="JhQlkjjX7iHYEp0X2-3j-24" value="Item is configurable?" style="text;html=1;align=center;verticalAlign=middle;resizable=0;points=[];autosize=1;strokeColor=none;fontSize=11;" parent="62aNgajdweEa2CIghpTw-1" vertex="1">
          <mxGeometry x="189" y="46" width="120" height="20" as="geometry" />
        </mxCell>
        <mxCell id="rYEHxikkQFOuEpkohTdn-0" value="" style="endArrow=classic;html=1;fontSize=11;exitX=0.719;exitY=1.023;exitDx=0;exitDy=0;exitPerimeter=0;entryX=0.5;entryY=0;entryDx=0;entryDy=0;entryPerimeter=0;" parent="62aNgajdweEa2CIghpTw-1" source="yfWFt9iNagmqOl-nRvkC-8" target="SgD1DVBmMQcm3VMZ9W4O-0" edge="1">
          <mxGeometry width="50" height="50" relative="1" as="geometry">
            <mxPoint x="859" y="384" as="sourcePoint" />
            <mxPoint x="909" y="594" as="targetPoint" />
          </mxGeometry>
        </mxCell>
        <mxCell id="SgD1DVBmMQcm3VMZ9W4O-0" value="End Process" style="strokeWidth=2;html=1;shape=mxgraph.flowchart.terminator;whiteSpace=wrap;fillColor=#dae8fc;strokeColor=#6c8ebf;" parent="62aNgajdweEa2CIghpTw-1" vertex="1">
          <mxGeometry x="859" y="584" width="100" height="60" as="geometry" />
        </mxCell>
        <mxCell id="oqQnlUYvJ2QTtYGW5pkh-0" value="" style="endArrow=classic;html=1;fontSize=11;" parent="62aNgajdweEa2CIghpTw-1" target="JhQlkjjX7iHYEp0X2-3j-19" edge="1">
          <mxGeometry width="50" height="50" relative="1" as="geometry">
            <mxPoint x="909" y="304" as="sourcePoint" />
            <mxPoint x="999" y="304" as="targetPoint" />
          </mxGeometry>
        </mxCell>
        <mxCell id="oqQnlUYvJ2QTtYGW5pkh-1" value="" style="endArrow=classic;html=1;fontSize=11;entryX=1;entryY=0.5;entryDx=0;entryDy=0;entryPerimeter=0;" parent="62aNgajdweEa2CIghpTw-1" target="JhQlkjjX7iHYEp0X2-3j-11" edge="1">
          <mxGeometry width="50" height="50" relative="1" as="geometry">
            <mxPoint x="910" y="434" as="sourcePoint" />
            <mxPoint x="849" y="414" as="targetPoint" />
          </mxGeometry>
        </mxCell>
      </root>
    </mxGraphModel>
  </diagram>
  <diagram id="rQDwCTbf4l8l-2NBMbtu" name="Queued items to be created">
    <mxGraphModel dx="1385" dy="921" grid="1" gridSize="10" guides="1" tooltips="1" connect="1" arrows="1" fold="1" page="1" pageScale="1" pageWidth="1100" pageHeight="850" math="0" shadow="0">
      <root>
        <mxCell id="yWG5PBbro5EMGnVu4h7--0" />
        <mxCell id="yWG5PBbro5EMGnVu4h7--1" parent="yWG5PBbro5EMGnVu4h7--0" />
        <mxCell id="AeYDjBZbXVTok7b9MQdU-1" style="edgeStyle=orthogonalEdgeStyle;rounded=0;orthogonalLoop=1;jettySize=auto;html=1;exitX=1;exitY=0.5;exitDx=0;exitDy=0;exitPerimeter=0;entryX=0.022;entryY=0.513;entryDx=0;entryDy=0;entryPerimeter=0;fontSize=11;" edge="1" parent="yWG5PBbro5EMGnVu4h7--1" source="qOpYfSg-oEudbbwoj4nd-0" target="qOpYfSg-oEudbbwoj4nd-2">
          <mxGeometry relative="1" as="geometry" />
        </mxCell>
        <mxCell id="qOpYfSg-oEudbbwoj4nd-0" value="" style="points=[[0,0,0],[0.25,0,0],[0.5,0,0],[0.75,0,0],[1,0,0],[0,1,0],[0.25,1,0],[0.5,1,0],[0.75,1,0],[1,1,0],[0,0.25,0],[0,0.5,0],[0,0.75,0],[1,0.25,0],[1,0.5,0],[1,0.75,0]];outlineConnect=0;fontColor=#232F3E;gradientColor=#F34482;gradientDirection=north;fillColor=#BC1356;strokeColor=#ffffff;dashed=0;verticalLabelPosition=bottom;verticalAlign=top;align=center;html=1;fontSize=12;fontStyle=0;aspect=fixed;shape=mxgraph.aws4.resourceIcon;resIcon=mxgraph.aws4.sqs;" parent="yWG5PBbro5EMGnVu4h7--1" vertex="1">
          <mxGeometry x="67" y="103" width="78" height="78" as="geometry" />
        </mxCell>
        <mxCell id="qOpYfSg-oEudbbwoj4nd-1" value="&lt;b&gt;Items Queued&lt;/b&gt;" style="text;html=1;align=center;verticalAlign=middle;resizable=0;points=[];autosize=1;strokeColor=none;fontSize=11;" parent="yWG5PBbro5EMGnVu4h7--1" vertex="1">
          <mxGeometry x="60" y="73" width="90" height="20" as="geometry" />
        </mxCell>
        <mxCell id="Pvd-VAjzZbUa91Vcz3uS-27" style="edgeStyle=orthogonalEdgeStyle;rounded=0;orthogonalLoop=1;jettySize=auto;html=1;entryX=0;entryY=0.5;entryDx=0;entryDy=0;entryPerimeter=0;fontSize=11;" edge="1" parent="yWG5PBbro5EMGnVu4h7--1" source="qOpYfSg-oEudbbwoj4nd-2" target="AeYDjBZbXVTok7b9MQdU-7">
          <mxGeometry relative="1" as="geometry" />
        </mxCell>
        <mxCell id="qOpYfSg-oEudbbwoj4nd-2" value="" style="html=1;dashed=0;whitespace=wrap;fillColor=#2875E2;strokeColor=#ffffff;points=[[0.005,0.63,0],[0.1,0.2,0],[0.9,0.2,0],[0.5,0,0],[0.995,0.63,0],[0.72,0.99,0],[0.5,1,0],[0.28,0.99,0]];shape=mxgraph.kubernetes.icon;prIcon=cronjob;fontSize=11;" parent="yWG5PBbro5EMGnVu4h7--1" vertex="1">
          <mxGeometry x="197" y="101" width="90" height="80" as="geometry" />
        </mxCell>
        <mxCell id="AeYDjBZbXVTok7b9MQdU-0" value="&lt;font style=&quot;font-size: 12px&quot;&gt;check items queue &lt;br&gt;every 3 hrs ?&lt;/font&gt;" style="text;html=1;align=center;verticalAlign=middle;resizable=0;points=[];autosize=1;strokeColor=none;fontSize=11;" vertex="1" parent="yWG5PBbro5EMGnVu4h7--1">
          <mxGeometry x="197" y="68" width="120" height="30" as="geometry" />
        </mxCell>
        <mxCell id="AeYDjBZbXVTok7b9MQdU-3" value="&lt;font style=&quot;font-size: 12px&quot;&gt;Item has assets ?&lt;br&gt;iItem has full info?&lt;br&gt;&lt;/font&gt;" style="text;html=1;align=center;verticalAlign=middle;resizable=0;points=[];autosize=1;strokeColor=none;fontSize=11;" vertex="1" parent="yWG5PBbro5EMGnVu4h7--1">
          <mxGeometry x="459" y="60" width="110" height="30" as="geometry" />
        </mxCell>
        <mxCell id="AeYDjBZbXVTok7b9MQdU-6" value="No" style="text;html=1;align=center;verticalAlign=middle;resizable=0;points=[];autosize=1;strokeColor=none;fontSize=11;" vertex="1" parent="yWG5PBbro5EMGnVu4h7--1">
          <mxGeometry x="477" y="237" width="30" height="20" as="geometry" />
        </mxCell>
        <mxCell id="Pvd-VAjzZbUa91Vcz3uS-28" style="edgeStyle=orthogonalEdgeStyle;rounded=0;orthogonalLoop=1;jettySize=auto;html=1;exitX=1;exitY=0.5;exitDx=0;exitDy=0;exitPerimeter=0;entryX=0;entryY=0.602;entryDx=0;entryDy=0;entryPerimeter=0;fontSize=11;" edge="1" parent="yWG5PBbro5EMGnVu4h7--1" source="AeYDjBZbXVTok7b9MQdU-7" target="Pvd-VAjzZbUa91Vcz3uS-26">
          <mxGeometry relative="1" as="geometry" />
        </mxCell>
        <mxCell id="AeYDjBZbXVTok7b9MQdU-7" value="" style="verticalLabelPosition=bottom;html=1;verticalAlign=top;align=center;strokeColor=none;fillColor=#00BEF2;shape=mxgraph.azure.code_file;pointerEvents=1;fontSize=11;" vertex="1" parent="yWG5PBbro5EMGnVu4h7--1">
          <mxGeometry x="356" y="109" width="50" height="64" as="geometry" />
        </mxCell>
        <mxCell id="AeYDjBZbXVTok7b9MQdU-9" value="Yes" style="text;html=1;align=center;verticalAlign=middle;resizable=0;points=[];autosize=1;strokeColor=none;fontSize=11;" vertex="1" parent="yWG5PBbro5EMGnVu4h7--1">
          <mxGeometry x="587" y="109" width="30" height="20" as="geometry" />
        </mxCell>
        <mxCell id="AeYDjBZbXVTok7b9MQdU-10" value="&lt;font style=&quot;font-size: 12px&quot;&gt;Get IPOS &lt;br&gt;payload document&lt;/font&gt;" style="text;html=1;align=center;verticalAlign=middle;resizable=0;points=[];autosize=1;strokeColor=none;fontSize=11;" vertex="1" parent="yWG5PBbro5EMGnVu4h7--1">
          <mxGeometry x="327" y="71" width="110" height="30" as="geometry" />
        </mxCell>
        <mxCell id="AeYDjBZbXVTok7b9MQdU-16" style="edgeStyle=orthogonalEdgeStyle;rounded=0;orthogonalLoop=1;jettySize=auto;html=1;exitX=0.5;exitY=1;exitDx=0;exitDy=0;exitPerimeter=0;fontSize=11;" edge="1" parent="yWG5PBbro5EMGnVu4h7--1" source="AeYDjBZbXVTok7b9MQdU-12" target="Pvd-VAjzZbUa91Vcz3uS-1">
          <mxGeometry relative="1" as="geometry">
            <mxPoint x="710" y="277" as="targetPoint" />
          </mxGeometry>
        </mxCell>
        <mxCell id="Pvd-VAjzZbUa91Vcz3uS-5" style="edgeStyle=orthogonalEdgeStyle;rounded=0;orthogonalLoop=1;jettySize=auto;html=1;exitX=1;exitY=0.5;exitDx=0;exitDy=0;exitPerimeter=0;fontSize=11;entryX=0;entryY=0.5;entryDx=0;entryDy=0;entryPerimeter=0;" edge="1" parent="yWG5PBbro5EMGnVu4h7--1" source="AeYDjBZbXVTok7b9MQdU-12" target="Pvd-VAjzZbUa91Vcz3uS-7">
          <mxGeometry relative="1" as="geometry">
            <mxPoint x="877" y="130" as="targetPoint" />
          </mxGeometry>
        </mxCell>
        <mxCell id="AeYDjBZbXVTok7b9MQdU-12" value="" style="strokeWidth=2;html=1;shape=mxgraph.flowchart.decision;whiteSpace=wrap;fontSize=11;fillColor=none;gradientColor=none;" vertex="1" parent="yWG5PBbro5EMGnVu4h7--1">
          <mxGeometry x="660" y="88" width="87" height="83" as="geometry" />
        </mxCell>
        <mxCell id="AeYDjBZbXVTok7b9MQdU-15" value="&lt;font style=&quot;font-size: 12px&quot;&gt;item is configurable?&lt;/font&gt;" style="text;html=1;align=center;verticalAlign=middle;resizable=0;points=[];autosize=1;strokeColor=none;fontSize=11;" vertex="1" parent="yWG5PBbro5EMGnVu4h7--1">
          <mxGeometry x="707" y="68" width="130" height="20" as="geometry" />
        </mxCell>
        <mxCell id="AeYDjBZbXVTok7b9MQdU-17" value="No" style="text;html=1;align=center;verticalAlign=middle;resizable=0;points=[];autosize=1;strokeColor=none;fontSize=11;" vertex="1" parent="yWG5PBbro5EMGnVu4h7--1">
          <mxGeometry x="717" y="207" width="30" height="20" as="geometry" />
        </mxCell>
        <mxCell id="Pvd-VAjzZbUa91Vcz3uS-1" value="" style="pointerEvents=1;shadow=0;dashed=0;html=1;strokeColor=none;fillColor=#505050;labelPosition=center;verticalLabelPosition=bottom;verticalAlign=top;outlineConnect=0;align=center;shape=mxgraph.office.concepts.publish;fontSize=11;" vertex="1" parent="yWG5PBbro5EMGnVu4h7--1">
          <mxGeometry x="660" y="257" width="85.5" height="70" as="geometry" />
        </mxCell>
        <mxCell id="Pvd-VAjzZbUa91Vcz3uS-3" value="&lt;font style=&quot;font-size: 12px&quot;&gt;Publish simple&amp;nbsp;&lt;br&gt;Item&lt;/font&gt;" style="text;html=1;align=center;verticalAlign=middle;resizable=0;points=[];autosize=1;strokeColor=none;fontSize=11;" vertex="1" parent="yWG5PBbro5EMGnVu4h7--1">
          <mxGeometry x="647.75" y="327" width="100" height="30" as="geometry" />
        </mxCell>
        <mxCell id="Pvd-VAjzZbUa91Vcz3uS-6" value="Yes" style="text;html=1;align=center;verticalAlign=middle;resizable=0;points=[];autosize=1;strokeColor=none;fontSize=11;" vertex="1" parent="yWG5PBbro5EMGnVu4h7--1">
          <mxGeometry x="797" y="107" width="30" height="20" as="geometry" />
        </mxCell>
        <mxCell id="Pvd-VAjzZbUa91Vcz3uS-12" style="edgeStyle=orthogonalEdgeStyle;rounded=0;orthogonalLoop=1;jettySize=auto;html=1;exitX=1;exitY=0.5;exitDx=0;exitDy=0;exitPerimeter=0;fontSize=11;" edge="1" parent="yWG5PBbro5EMGnVu4h7--1" source="Pvd-VAjzZbUa91Vcz3uS-7" target="Pvd-VAjzZbUa91Vcz3uS-11">
          <mxGeometry relative="1" as="geometry" />
        </mxCell>
        <mxCell id="Pvd-VAjzZbUa91Vcz3uS-16" style="edgeStyle=orthogonalEdgeStyle;rounded=0;orthogonalLoop=1;jettySize=auto;html=1;exitX=0.5;exitY=1;exitDx=0;exitDy=0;exitPerimeter=0;entryX=0.5;entryY=0;entryDx=0;entryDy=0;entryPerimeter=0;fontSize=11;" edge="1" parent="yWG5PBbro5EMGnVu4h7--1" source="Pvd-VAjzZbUa91Vcz3uS-7" target="Pvd-VAjzZbUa91Vcz3uS-15">
          <mxGeometry relative="1" as="geometry" />
        </mxCell>
        <mxCell id="Pvd-VAjzZbUa91Vcz3uS-7" value="" style="strokeWidth=2;html=1;shape=mxgraph.flowchart.decision;whiteSpace=wrap;fontSize=11;fillColor=none;gradientColor=none;" vertex="1" parent="yWG5PBbro5EMGnVu4h7--1">
          <mxGeometry x="897" y="88" width="87" height="83" as="geometry" />
        </mxCell>
        <mxCell id="Pvd-VAjzZbUa91Vcz3uS-8" value="&lt;font style=&quot;font-size: 12px&quot;&gt;Parent Item Already exists?&lt;/font&gt;" style="text;html=1;align=center;verticalAlign=middle;resizable=0;points=[];autosize=1;strokeColor=none;fontSize=11;" vertex="1" parent="yWG5PBbro5EMGnVu4h7--1">
          <mxGeometry x="862" y="68" width="160" height="20" as="geometry" />
        </mxCell>
        <mxCell id="Pvd-VAjzZbUa91Vcz3uS-11" value="" style="pointerEvents=1;shadow=0;dashed=0;html=1;strokeColor=none;fillColor=#505050;labelPosition=center;verticalLabelPosition=bottom;verticalAlign=top;outlineConnect=0;align=center;shape=mxgraph.office.concepts.publish;fontSize=11;" vertex="1" parent="yWG5PBbro5EMGnVu4h7--1">
          <mxGeometry x="1097" y="95" width="85.5" height="70" as="geometry" />
        </mxCell>
        <mxCell id="Pvd-VAjzZbUa91Vcz3uS-13" value="Yes" style="text;html=1;align=center;verticalAlign=middle;resizable=0;points=[];autosize=1;strokeColor=none;fontSize=11;" vertex="1" parent="yWG5PBbro5EMGnVu4h7--1">
          <mxGeometry x="992" y="107" width="30" height="20" as="geometry" />
        </mxCell>
        <mxCell id="Pvd-VAjzZbUa91Vcz3uS-14" value="&lt;font style=&quot;font-size: 12px&quot;&gt;Publish Variant item&lt;/font&gt;" style="text;html=1;align=center;verticalAlign=middle;resizable=0;points=[];autosize=1;strokeColor=none;fontSize=11;" vertex="1" parent="yWG5PBbro5EMGnVu4h7--1">
          <mxGeometry x="1079.75" y="165" width="120" height="20" as="geometry" />
        </mxCell>
        <mxCell id="Pvd-VAjzZbUa91Vcz3uS-19" style="edgeStyle=orthogonalEdgeStyle;rounded=0;orthogonalLoop=1;jettySize=auto;html=1;exitX=0.5;exitY=1;exitDx=0;exitDy=0;exitPerimeter=0;fontSize=11;entryX=0.25;entryY=1;entryDx=0;entryDy=0;entryPerimeter=0;" edge="1" parent="yWG5PBbro5EMGnVu4h7--1" source="Pvd-VAjzZbUa91Vcz3uS-15" target="qOpYfSg-oEudbbwoj4nd-0">
          <mxGeometry relative="1" as="geometry">
            <mxPoint x="87" y="187" as="targetPoint" />
            <Array as="points">
              <mxPoint x="941" y="397" />
              <mxPoint x="87" y="397" />
            </Array>
          </mxGeometry>
        </mxCell>
        <mxCell id="Pvd-VAjzZbUa91Vcz3uS-23" style="edgeStyle=orthogonalEdgeStyle;rounded=0;orthogonalLoop=1;jettySize=auto;html=1;exitX=1;exitY=0.5;exitDx=0;exitDy=0;exitPerimeter=0;fontSize=11;" edge="1" parent="yWG5PBbro5EMGnVu4h7--1" source="Pvd-VAjzZbUa91Vcz3uS-15" target="Pvd-VAjzZbUa91Vcz3uS-21">
          <mxGeometry relative="1" as="geometry" />
        </mxCell>
        <mxCell id="Pvd-VAjzZbUa91Vcz3uS-15" value="" style="strokeWidth=2;html=1;shape=mxgraph.flowchart.decision;whiteSpace=wrap;fontSize=11;fillColor=none;gradientColor=none;" vertex="1" parent="yWG5PBbro5EMGnVu4h7--1">
          <mxGeometry x="897" y="230.5" width="87" height="83" as="geometry" />
        </mxCell>
        <mxCell id="Pvd-VAjzZbUa91Vcz3uS-17" value="No" style="text;html=1;align=center;verticalAlign=middle;resizable=0;points=[];autosize=1;strokeColor=none;fontSize=11;" vertex="1" parent="yWG5PBbro5EMGnVu4h7--1">
          <mxGeometry x="942" y="185" width="30" height="20" as="geometry" />
        </mxCell>
        <mxCell id="Pvd-VAjzZbUa91Vcz3uS-18" value="&lt;font style=&quot;font-size: 12px&quot;&gt;Is parent item?&lt;/font&gt;" style="text;html=1;align=center;verticalAlign=middle;resizable=0;points=[];autosize=1;strokeColor=none;fontSize=11;" vertex="1" parent="yWG5PBbro5EMGnVu4h7--1">
          <mxGeometry x="957" y="227" width="90" height="20" as="geometry" />
        </mxCell>
        <mxCell id="Pvd-VAjzZbUa91Vcz3uS-20" value="No" style="text;html=1;align=center;verticalAlign=middle;resizable=0;points=[];autosize=1;strokeColor=none;fontSize=11;" vertex="1" parent="yWG5PBbro5EMGnVu4h7--1">
          <mxGeometry x="862" y="377" width="30" height="20" as="geometry" />
        </mxCell>
        <mxCell id="Pvd-VAjzZbUa91Vcz3uS-21" value="" style="pointerEvents=1;shadow=0;dashed=0;html=1;strokeColor=none;fillColor=#505050;labelPosition=center;verticalLabelPosition=bottom;verticalAlign=top;outlineConnect=0;align=center;shape=mxgraph.office.concepts.publish;fontSize=11;" vertex="1" parent="yWG5PBbro5EMGnVu4h7--1">
          <mxGeometry x="1097" y="237" width="85.5" height="70" as="geometry" />
        </mxCell>
        <mxCell id="Pvd-VAjzZbUa91Vcz3uS-22" value="&lt;font style=&quot;font-size: 12px&quot;&gt;Publish Parent item&lt;/font&gt;" style="text;html=1;align=center;verticalAlign=middle;resizable=0;points=[];autosize=1;strokeColor=none;fontSize=11;" vertex="1" parent="yWG5PBbro5EMGnVu4h7--1">
          <mxGeometry x="1079.75" y="313.5" width="120" height="20" as="geometry" />
        </mxCell>
        <mxCell id="Pvd-VAjzZbUa91Vcz3uS-24" value="yes" style="text;html=1;align=center;verticalAlign=middle;resizable=0;points=[];autosize=1;strokeColor=none;fontSize=11;" vertex="1" parent="yWG5PBbro5EMGnVu4h7--1">
          <mxGeometry x="992" y="277" width="30" height="20" as="geometry" />
        </mxCell>
        <mxCell id="Pvd-VAjzZbUa91Vcz3uS-29" style="edgeStyle=orthogonalEdgeStyle;rounded=0;orthogonalLoop=1;jettySize=auto;html=1;fontSize=11;" edge="1" parent="yWG5PBbro5EMGnVu4h7--1" source="Pvd-VAjzZbUa91Vcz3uS-26">
          <mxGeometry relative="1" as="geometry">
            <mxPoint x="657" y="132.89999999999998" as="targetPoint" />
          </mxGeometry>
        </mxCell>
        <mxCell id="Pvd-VAjzZbUa91Vcz3uS-30" style="edgeStyle=orthogonalEdgeStyle;rounded=0;orthogonalLoop=1;jettySize=auto;html=1;fontSize=11;" edge="1" parent="yWG5PBbro5EMGnVu4h7--1" source="Pvd-VAjzZbUa91Vcz3uS-26" target="qOpYfSg-oEudbbwoj4nd-0">
          <mxGeometry relative="1" as="geometry">
            <Array as="points">
              <mxPoint x="517" y="267" />
              <mxPoint x="106" y="267" />
            </Array>
          </mxGeometry>
        </mxCell>
        <mxCell id="Pvd-VAjzZbUa91Vcz3uS-26" value="" style="html=1;aspect=fixed;strokeColor=none;shadow=0;align=center;verticalAlign=top;fillColor=#3B8DF1;shape=mxgraph.gcp2.systems_check;fontSize=11;" vertex="1" parent="yWG5PBbro5EMGnVu4h7--1">
          <mxGeometry x="477" y="93" width="79" height="79.8" as="geometry" />
        </mxCell>
      </root>
    </mxGraphModel>
  </diagram>
  <diagram id="IQhEYUkvPIBrb2xpnDAF" name="Item Update Queue">
    <mxGraphModel dx="1385" dy="921" grid="1" gridSize="10" guides="1" tooltips="1" connect="1" arrows="1" fold="1" page="1" pageScale="1" pageWidth="1100" pageHeight="850" math="0" shadow="0">
      <root>
        <mxCell id="afUevVzn6A4aciPXr3rR-0" />
        <mxCell id="afUevVzn6A4aciPXr3rR-1" parent="afUevVzn6A4aciPXr3rR-0" />
        <object label="" id="6D_lX4xWhLvhC3Lz94TF-1">
          <mxCell style="shape=image;html=1;verticalAlign=top;verticalLabelPosition=bottom;labelBackgroundColor=#ffffff;imageAspect=0;aspect=fixed;image=https://cdn2.iconfinder.com/data/icons/thin-line-icons-for-seo-and-development-1/64/SEO_site_map-128.png;direction=north;" vertex="1" parent="afUevVzn6A4aciPXr3rR-1">
            <mxGeometry x="15" y="40" width="90" height="90" as="geometry" />
          </mxCell>
        </object>
        <mxCell id="6D_lX4xWhLvhC3Lz94TF-2" value="&lt;font style=&quot;font-size: 11px&quot;&gt;Mapped data from Event&lt;/font&gt;" style="text;html=1;align=center;verticalAlign=middle;resizable=0;points=[];autosize=1;strokeColor=none;" vertex="1" parent="afUevVzn6A4aciPXr3rR-1">
          <mxGeometry x="10" y="20" width="140" height="20" as="geometry" />
        </mxCell>
        <mxCell id="JIyBgTxAuZIT1AmXwuHX-0" style="edgeStyle=orthogonalEdgeStyle;rounded=0;orthogonalLoop=1;jettySize=auto;html=1;exitX=1;exitY=0.5;exitDx=0;exitDy=0;fontSize=11;" edge="1" parent="afUevVzn6A4aciPXr3rR-1" source="6D_lX4xWhLvhC3Lz94TF-4">
          <mxGeometry relative="1" as="geometry">
            <mxPoint x="360" y="85" as="targetPoint" />
          </mxGeometry>
        </mxCell>
        <mxCell id="6D_lX4xWhLvhC3Lz94TF-4" value="" style="aspect=fixed;perimeter=ellipsePerimeter;html=1;align=center;shadow=0;dashed=0;fontColor=#4277BB;labelBackgroundColor=#ffffff;fontSize=12;spacingTop=3;image;image=img/lib/ibm/applications/saas_applications.svg;fillColor=#ffffff;gradientColor=none;" vertex="1" parent="afUevVzn6A4aciPXr3rR-1">
          <mxGeometry x="204" y="50" width="70" height="70" as="geometry" />
        </mxCell>
        <mxCell id="6D_lX4xWhLvhC3Lz94TF-5" value="&lt;font style=&quot;font-size: 11px&quot;&gt;Get Item Cost Values&lt;/font&gt;" style="text;html=1;align=center;verticalAlign=middle;resizable=0;points=[];autosize=1;strokeColor=none;" vertex="1" parent="afUevVzn6A4aciPXr3rR-1">
          <mxGeometry x="190" y="20" width="120" height="20" as="geometry" />
        </mxCell>
        <mxCell id="6D_lX4xWhLvhC3Lz94TF-6" value="&lt;b&gt;&lt;font style=&quot;font-size: 11px&quot;&gt;Prepare request payload for IPOS&lt;/font&gt;&lt;/b&gt;" style="text;html=1;align=center;verticalAlign=middle;resizable=0;points=[];autosize=1;strokeColor=none;" vertex="1" parent="afUevVzn6A4aciPXr3rR-1">
          <mxGeometry x="376" y="20" width="190" height="20" as="geometry" />
        </mxCell>
        <mxCell id="6D_lX4xWhLvhC3Lz94TF-7" value="" style="rounded=0;whiteSpace=wrap;html=1;dashed=1;fillColor=none;gradientColor=none;" vertex="1" parent="afUevVzn6A4aciPXr3rR-1">
          <mxGeometry x="370" y="44" width="570" height="150" as="geometry" />
        </mxCell>
        <mxCell id="6D_lX4xWhLvhC3Lz94TF-8" style="edgeStyle=orthogonalEdgeStyle;rounded=0;orthogonalLoop=1;jettySize=auto;html=1;exitX=0.995;exitY=0.63;exitDx=0;exitDy=0;exitPerimeter=0;entryX=-0.089;entryY=0.757;entryDx=0;entryDy=0;entryPerimeter=0;" edge="1" parent="afUevVzn6A4aciPXr3rR-1" source="6D_lX4xWhLvhC3Lz94TF-9" target="6D_lX4xWhLvhC3Lz94TF-11">
          <mxGeometry relative="1" as="geometry" />
        </mxCell>
        <mxCell id="6D_lX4xWhLvhC3Lz94TF-9" value="" style="html=1;dashed=0;whitespace=wrap;fillColor=#2875E2;strokeColor=#ffffff;points=[[0.005,0.63,0],[0.1,0.2,0],[0.9,0.2,0],[0.5,0,0],[0.995,0.63,0],[0.72,0.99,0],[0.5,1,0],[0.28,0.99,0]];shape=mxgraph.kubernetes.icon;prIcon=api" vertex="1" parent="afUevVzn6A4aciPXr3rR-1">
          <mxGeometry x="386" y="80" width="70" height="78" as="geometry" />
        </mxCell>
        <mxCell id="6D_lX4xWhLvhC3Lz94TF-10" value="&lt;div style=&quot;text-align: left&quot;&gt;&lt;span style=&quot;font-size: 9px&quot;&gt;Query IPOS&lt;/span&gt;&lt;/div&gt;&lt;font style=&quot;font-size: 9px&quot;&gt;categories collection&lt;/font&gt;" style="text;html=1;align=center;verticalAlign=middle;resizable=0;points=[];autosize=1;strokeColor=none;" vertex="1" parent="afUevVzn6A4aciPXr3rR-1">
          <mxGeometry x="377.5" y="53" width="100" height="40" as="geometry" />
        </mxCell>
        <mxCell id="6D_lX4xWhLvhC3Lz94TF-11" value="" style="aspect=fixed;pointerEvents=1;shadow=0;dashed=0;html=1;strokeColor=none;labelPosition=center;verticalLabelPosition=bottom;verticalAlign=top;align=center;fillColor=#00188D;shape=mxgraph.azure.code_file" vertex="1" parent="afUevVzn6A4aciPXr3rR-1">
          <mxGeometry x="504" y="91" width="47" height="50" as="geometry" />
        </mxCell>
        <mxCell id="6D_lX4xWhLvhC3Lz94TF-12" value="Create tmp document &lt;br&gt;for collection" style="text;html=1;align=center;verticalAlign=middle;resizable=0;points=[];autosize=1;strokeColor=none;fontSize=9;" vertex="1" parent="afUevVzn6A4aciPXr3rR-1">
          <mxGeometry x="477.5" y="143" width="100" height="30" as="geometry" />
        </mxCell>
        <object label="" id="6D_lX4xWhLvhC3Lz94TF-13">
          <mxCell style="shape=image;html=1;verticalAlign=top;verticalLabelPosition=bottom;labelBackgroundColor=#ffffff;imageAspect=0;aspect=fixed;image=https://cdn2.iconfinder.com/data/icons/thin-line-icons-for-seo-and-development-1/64/SEO_site_map-128.png;direction=north;" vertex="1" parent="afUevVzn6A4aciPXr3rR-1">
            <mxGeometry x="606" y="87" width="58" height="58" as="geometry" />
          </mxCell>
        </object>
        <mxCell id="6D_lX4xWhLvhC3Lz94TF-14" value="" style="endArrow=classic;html=1;fontSize=9;exitX=1;exitY=0.5;exitDx=0;exitDy=0;exitPerimeter=0;entryX=0.5;entryY=0;entryDx=0;entryDy=0;" edge="1" parent="afUevVzn6A4aciPXr3rR-1" source="6D_lX4xWhLvhC3Lz94TF-11" target="6D_lX4xWhLvhC3Lz94TF-13">
          <mxGeometry width="50" height="50" relative="1" as="geometry">
            <mxPoint x="606" y="259" as="sourcePoint" />
            <mxPoint x="656" y="209" as="targetPoint" />
          </mxGeometry>
        </mxCell>
        <mxCell id="6D_lX4xWhLvhC3Lz94TF-15" value="Filter categories entity&lt;br&gt;by category name" style="text;html=1;align=center;verticalAlign=middle;resizable=0;points=[];autosize=1;strokeColor=none;fontSize=9;" vertex="1" parent="afUevVzn6A4aciPXr3rR-1">
          <mxGeometry x="593" y="141" width="100" height="30" as="geometry" />
        </mxCell>
        <object label="" id="6D_lX4xWhLvhC3Lz94TF-16">
          <mxCell style="shape=image;html=1;verticalAlign=top;verticalLabelPosition=bottom;labelBackgroundColor=#ffffff;imageAspect=0;aspect=fixed;image=https://cdn2.iconfinder.com/data/icons/thin-line-icons-for-seo-and-development-1/64/SEO_site_map-128.png;direction=north;" vertex="1" parent="afUevVzn6A4aciPXr3rR-1">
            <mxGeometry x="736" y="87" width="58" height="58" as="geometry" />
          </mxCell>
        </object>
        <mxCell id="6D_lX4xWhLvhC3Lz94TF-17" value="" style="endArrow=classic;html=1;fontSize=9;exitX=0.5;exitY=1;exitDx=0;exitDy=0;entryX=0.5;entryY=0;entryDx=0;entryDy=0;" edge="1" parent="afUevVzn6A4aciPXr3rR-1" source="6D_lX4xWhLvhC3Lz94TF-13" target="6D_lX4xWhLvhC3Lz94TF-16">
          <mxGeometry width="50" height="50" relative="1" as="geometry">
            <mxPoint x="686" y="230" as="sourcePoint" />
            <mxPoint x="736" y="180" as="targetPoint" />
          </mxGeometry>
        </mxCell>
        <mxCell id="6D_lX4xWhLvhC3Lz94TF-18" value="Map IPOS Payload" style="text;html=1;align=center;verticalAlign=middle;resizable=0;points=[];autosize=1;strokeColor=none;fontSize=9;" vertex="1" parent="afUevVzn6A4aciPXr3rR-1">
          <mxGeometry x="720" y="143" width="90" height="20" as="geometry" />
        </mxCell>
        <mxCell id="6D_lX4xWhLvhC3Lz94TF-19" value="" style="aspect=fixed;pointerEvents=1;shadow=0;dashed=0;html=1;strokeColor=none;labelPosition=center;verticalLabelPosition=bottom;verticalAlign=top;align=center;fillColor=#00188D;shape=mxgraph.azure.code_file" vertex="1" parent="afUevVzn6A4aciPXr3rR-1">
          <mxGeometry x="856" y="91" width="47" height="50" as="geometry" />
        </mxCell>
        <mxCell id="6D_lX4xWhLvhC3Lz94TF-20" value="Save&lt;br&gt;Payload Document" style="text;html=1;align=center;verticalAlign=middle;resizable=0;points=[];autosize=1;strokeColor=none;fontSize=9;" vertex="1" parent="afUevVzn6A4aciPXr3rR-1">
          <mxGeometry x="834.5" y="141" width="90" height="30" as="geometry" />
        </mxCell>
        <mxCell id="6D_lX4xWhLvhC3Lz94TF-21" value="" style="endArrow=classic;html=1;fontSize=9;exitX=0.5;exitY=1;exitDx=0;exitDy=0;entryX=0;entryY=0.5;entryDx=0;entryDy=0;entryPerimeter=0;" edge="1" parent="afUevVzn6A4aciPXr3rR-1" source="6D_lX4xWhLvhC3Lz94TF-16" target="6D_lX4xWhLvhC3Lz94TF-19">
          <mxGeometry width="50" height="50" relative="1" as="geometry">
            <mxPoint x="806" y="250" as="sourcePoint" />
            <mxPoint x="856" y="200" as="targetPoint" />
          </mxGeometry>
        </mxCell>
        <UserObject label="" id="6D_lX4xWhLvhC3Lz94TF-22">
          <mxCell style="points=[[0,0,0],[0.25,0,0],[0.5,0,0],[0.75,0,0],[1,0,0],[0,1,0],[0.25,1,0],[0.5,1,0],[0.75,1,0],[1,1,0],[0,0.25,0],[0,0.5,0],[0,0.75,0],[1,0.25,0],[1,0.5,0],[1,0.75,0]];outlineConnect=0;fontColor=#232F3E;gradientColor=#F34482;gradientDirection=north;fillColor=#BC1356;strokeColor=#ffffff;dashed=0;verticalLabelPosition=bottom;verticalAlign=top;align=center;html=1;fontSize=12;fontStyle=0;aspect=fixed;shape=mxgraph.aws4.resourceIcon;resIcon=mxgraph.aws4.sqs;" vertex="1" parent="afUevVzn6A4aciPXr3rR-1">
            <mxGeometry x="453" y="401" width="78" height="78" as="geometry" />
          </mxCell>
        </UserObject>
        <mxCell id="6D_lX4xWhLvhC3Lz94TF-23" value="&lt;span style=&quot;font-size: 11px&quot;&gt;Queue items &lt;br&gt;to be updated&lt;/span&gt;" style="text;html=1;align=center;verticalAlign=middle;resizable=0;points=[];autosize=1;strokeColor=none;fontSize=11;" vertex="1" parent="afUevVzn6A4aciPXr3rR-1">
          <mxGeometry x="450" y="361" width="80" height="30" as="geometry" />
        </mxCell>
        <mxCell id="6D_lX4xWhLvhC3Lz94TF-24" value="Notify users about &lt;br&gt;item update" style="text;html=1;align=center;verticalAlign=middle;resizable=0;points=[];autosize=1;strokeColor=none;fontSize=11;" vertex="1" parent="afUevVzn6A4aciPXr3rR-1">
          <mxGeometry x="603" y="361" width="100" height="30" as="geometry" />
        </mxCell>
        <mxCell id="6D_lX4xWhLvhC3Lz94TF-25" value="" style="points=[[0,0,0],[0.25,0,0],[0.5,0,0],[0.75,0,0],[1,0,0],[0,1,0],[0.25,1,0],[0.5,1,0],[0.75,1,0],[1,1,0],[0,0.25,0],[0,0.5,0],[0,0.75,0],[1,0.25,0],[1,0.5,0],[1,0.75,0]];outlineConnect=0;fontColor=#232F3E;gradientColor=#F34482;gradientDirection=north;fillColor=#BC1356;strokeColor=#ffffff;dashed=0;verticalLabelPosition=bottom;verticalAlign=top;align=center;html=1;fontSize=12;fontStyle=0;aspect=fixed;shape=mxgraph.aws4.resourceIcon;resIcon=mxgraph.aws4.sns;" vertex="1" parent="afUevVzn6A4aciPXr3rR-1">
          <mxGeometry x="616" y="401" width="78" height="78" as="geometry" />
        </mxCell>
        <mxCell id="6D_lX4xWhLvhC3Lz94TF-26" style="edgeStyle=orthogonalEdgeStyle;rounded=0;orthogonalLoop=1;jettySize=auto;html=1;exitX=0.5;exitY=1;exitDx=0;exitDy=0;fontSize=11;" edge="1" parent="afUevVzn6A4aciPXr3rR-1" source="6D_lX4xWhLvhC3Lz94TF-1" target="6D_lX4xWhLvhC3Lz94TF-4">
          <mxGeometry relative="1" as="geometry">
            <mxPoint x="210" y="84" as="targetPoint" />
            <mxPoint x="150" y="84" as="sourcePoint" />
          </mxGeometry>
        </mxCell>
        <mxCell id="6D_lX4xWhLvhC3Lz94TF-30" value="End Process" style="strokeWidth=2;html=1;shape=mxgraph.flowchart.terminator;whiteSpace=wrap;fillColor=#dae8fc;strokeColor=#6c8ebf;" vertex="1" parent="afUevVzn6A4aciPXr3rR-1">
          <mxGeometry x="857" y="660" width="100" height="60" as="geometry" />
        </mxCell>
        <mxCell id="JIyBgTxAuZIT1AmXwuHX-8" style="edgeStyle=orthogonalEdgeStyle;rounded=0;orthogonalLoop=1;jettySize=auto;html=1;exitX=0.5;exitY=1;exitDx=0;exitDy=0;entryX=0.198;entryY=-0.05;entryDx=0;entryDy=0;entryPerimeter=0;fontSize=11;" edge="1" parent="afUevVzn6A4aciPXr3rR-1" source="JIyBgTxAuZIT1AmXwuHX-1" target="JIyBgTxAuZIT1AmXwuHX-6">
          <mxGeometry relative="1" as="geometry" />
        </mxCell>
        <mxCell id="JIyBgTxAuZIT1AmXwuHX-1" value="" style="shape=image;html=1;verticalAlign=top;verticalLabelPosition=bottom;labelBackgroundColor=#ffffff;imageAspect=0;aspect=fixed;image=https://cdn2.iconfinder.com/data/icons/elasto-online-store/26/00-ELASTOFONT-STORE-READY_compare-128.png;fontSize=11;fillColor=none;gradientColor=none;" vertex="1" parent="afUevVzn6A4aciPXr3rR-1">
          <mxGeometry x="838.5" y="296.5" width="94.5" height="94.5" as="geometry" />
        </mxCell>
        <mxCell id="JIyBgTxAuZIT1AmXwuHX-4" value="" style="endArrow=classic;html=1;fontSize=11;exitX=0.904;exitY=1.02;exitDx=0;exitDy=0;exitPerimeter=0;entryX=0.5;entryY=0;entryDx=0;entryDy=0;" edge="1" parent="afUevVzn6A4aciPXr3rR-1" source="6D_lX4xWhLvhC3Lz94TF-7" target="JIyBgTxAuZIT1AmXwuHX-1">
          <mxGeometry width="50" height="50" relative="1" as="geometry">
            <mxPoint x="834.5" y="290" as="sourcePoint" />
            <mxPoint x="885" y="300" as="targetPoint" />
          </mxGeometry>
        </mxCell>
        <mxCell id="JIyBgTxAuZIT1AmXwuHX-5" value="Compare generated payload&lt;br&gt;vs&lt;br&gt;tmp IPOS payload response" style="text;html=1;align=center;verticalAlign=middle;resizable=0;points=[];autosize=1;strokeColor=none;fontSize=11;" vertex="1" parent="afUevVzn6A4aciPXr3rR-1">
          <mxGeometry x="890" y="240" width="150" height="40" as="geometry" />
        </mxCell>
        <mxCell id="JIyBgTxAuZIT1AmXwuHX-10" style="edgeStyle=orthogonalEdgeStyle;rounded=0;orthogonalLoop=1;jettySize=auto;html=1;entryX=0.43;entryY=0;entryDx=0;entryDy=0;entryPerimeter=0;fontSize=11;" edge="1" parent="afUevVzn6A4aciPXr3rR-1" source="JIyBgTxAuZIT1AmXwuHX-6" target="6D_lX4xWhLvhC3Lz94TF-30">
          <mxGeometry relative="1" as="geometry" />
        </mxCell>
        <mxCell id="JIyBgTxAuZIT1AmXwuHX-6" value="" style="verticalLabelPosition=bottom;html=1;verticalAlign=top;align=center;strokeColor=none;fillColor=#00BEF2;shape=mxgraph.azure.code_file;pointerEvents=1;fontSize=11;" vertex="1" parent="afUevVzn6A4aciPXr3rR-1">
          <mxGeometry x="876.5" y="455" width="48" height="60" as="geometry" />
        </mxCell>
        <mxCell id="JIyBgTxAuZIT1AmXwuHX-7" value="Catch differences&lt;br&gt;generate payload" style="text;html=1;align=center;verticalAlign=middle;resizable=0;points=[];autosize=1;strokeColor=none;fontSize=11;" vertex="1" parent="afUevVzn6A4aciPXr3rR-1">
          <mxGeometry x="903" y="425" width="100" height="30" as="geometry" />
        </mxCell>
        <mxCell id="JIyBgTxAuZIT1AmXwuHX-12" value="" style="endArrow=classic;html=1;fontSize=11;entryX=0.346;entryY=1.013;entryDx=0;entryDy=0;entryPerimeter=0;rounded=0;" edge="1" parent="afUevVzn6A4aciPXr3rR-1" target="6D_lX4xWhLvhC3Lz94TF-22">
          <mxGeometry width="50" height="50" relative="1" as="geometry">
            <mxPoint x="900" y="590" as="sourcePoint" />
            <mxPoint x="470" y="500" as="targetPoint" />
            <Array as="points">
              <mxPoint x="480" y="590" />
            </Array>
          </mxGeometry>
        </mxCell>
        <mxCell id="JIyBgTxAuZIT1AmXwuHX-13" value="" style="endArrow=classic;html=1;fontSize=11;entryX=1;entryY=0.25;entryDx=0;entryDy=0;entryPerimeter=0;rounded=0;" edge="1" parent="afUevVzn6A4aciPXr3rR-1" target="6D_lX4xWhLvhC3Lz94TF-25">
          <mxGeometry width="50" height="50" relative="1" as="geometry">
            <mxPoint x="900" y="550" as="sourcePoint" />
            <mxPoint x="780" y="500" as="targetPoint" />
            <Array as="points">
              <mxPoint x="730" y="550" />
              <mxPoint x="730" y="490" />
              <mxPoint x="730" y="421" />
            </Array>
          </mxGeometry>
        </mxCell>
      </root>
    </mxGraphModel>
  </diagram>
  <diagram id="HBp3G8JD9QaH23FicLJo" name="Queued items to be updated">
    <mxGraphModel dx="1385" dy="921" grid="1" gridSize="10" guides="1" tooltips="1" connect="1" arrows="1" fold="1" page="1" pageScale="1" pageWidth="1100" pageHeight="850" math="0" shadow="0">
      <root>
        <mxCell id="XNGhsaMjTDCV8xivHwK5-0" />
        <mxCell id="XNGhsaMjTDCV8xivHwK5-1" parent="XNGhsaMjTDCV8xivHwK5-0" />
        <mxCell id="YofEB-PI3-ipGwh48EZV-0" style="edgeStyle=orthogonalEdgeStyle;rounded=0;orthogonalLoop=1;jettySize=auto;html=1;exitX=1;exitY=0.5;exitDx=0;exitDy=0;exitPerimeter=0;entryX=0.022;entryY=0.513;entryDx=0;entryDy=0;entryPerimeter=0;fontSize=11;" edge="1" parent="XNGhsaMjTDCV8xivHwK5-1" source="YofEB-PI3-ipGwh48EZV-1" target="YofEB-PI3-ipGwh48EZV-4">
          <mxGeometry relative="1" as="geometry" />
        </mxCell>
        <mxCell id="YofEB-PI3-ipGwh48EZV-1" value="" style="points=[[0,0,0],[0.25,0,0],[0.5,0,0],[0.75,0,0],[1,0,0],[0,1,0],[0.25,1,0],[0.5,1,0],[0.75,1,0],[1,1,0],[0,0.25,0],[0,0.5,0],[0,0.75,0],[1,0.25,0],[1,0.5,0],[1,0.75,0]];outlineConnect=0;fontColor=#232F3E;gradientColor=#F34482;gradientDirection=north;fillColor=#BC1356;strokeColor=#ffffff;dashed=0;verticalLabelPosition=bottom;verticalAlign=top;align=center;html=1;fontSize=12;fontStyle=0;aspect=fixed;shape=mxgraph.aws4.resourceIcon;resIcon=mxgraph.aws4.sqs;" vertex="1" parent="XNGhsaMjTDCV8xivHwK5-1">
          <mxGeometry x="47" y="93" width="78" height="78" as="geometry" />
        </mxCell>
        <mxCell id="YofEB-PI3-ipGwh48EZV-2" value="&lt;b&gt;Items Queued for update&lt;/b&gt;" style="text;html=1;align=center;verticalAlign=middle;resizable=0;points=[];autosize=1;strokeColor=none;fontSize=11;" vertex="1" parent="XNGhsaMjTDCV8xivHwK5-1">
          <mxGeometry x="10" y="63" width="150" height="20" as="geometry" />
        </mxCell>
        <mxCell id="YofEB-PI3-ipGwh48EZV-3" style="edgeStyle=orthogonalEdgeStyle;rounded=0;orthogonalLoop=1;jettySize=auto;html=1;entryX=0;entryY=0.5;entryDx=0;entryDy=0;entryPerimeter=0;fontSize=11;" edge="1" parent="XNGhsaMjTDCV8xivHwK5-1" source="YofEB-PI3-ipGwh48EZV-4" target="YofEB-PI3-ipGwh48EZV-9">
          <mxGeometry relative="1" as="geometry" />
        </mxCell>
        <mxCell id="YofEB-PI3-ipGwh48EZV-4" value="" style="html=1;dashed=0;whitespace=wrap;fillColor=#2875E2;strokeColor=#ffffff;points=[[0.005,0.63,0],[0.1,0.2,0],[0.9,0.2,0],[0.5,0,0],[0.995,0.63,0],[0.72,0.99,0],[0.5,1,0],[0.28,0.99,0]];shape=mxgraph.kubernetes.icon;prIcon=cronjob;fontSize=11;" vertex="1" parent="XNGhsaMjTDCV8xivHwK5-1">
          <mxGeometry x="177" y="91" width="90" height="80" as="geometry" />
        </mxCell>
        <mxCell id="YofEB-PI3-ipGwh48EZV-5" value="&lt;font style=&quot;font-size: 12px&quot;&gt;check items queue &lt;br&gt;every 3 hrs ?&lt;/font&gt;" style="text;html=1;align=center;verticalAlign=middle;resizable=0;points=[];autosize=1;strokeColor=none;fontSize=11;" vertex="1" parent="XNGhsaMjTDCV8xivHwK5-1">
          <mxGeometry x="177" y="58" width="120" height="30" as="geometry" />
        </mxCell>
        <mxCell id="YofEB-PI3-ipGwh48EZV-8" style="edgeStyle=orthogonalEdgeStyle;rounded=0;orthogonalLoop=1;jettySize=auto;html=1;exitX=1;exitY=0.5;exitDx=0;exitDy=0;exitPerimeter=0;fontSize=11;" edge="1" parent="XNGhsaMjTDCV8xivHwK5-1" source="YofEB-PI3-ipGwh48EZV-9" target="YofEB-PI3-ipGwh48EZV-39">
          <mxGeometry relative="1" as="geometry">
            <mxPoint x="457" y="131.03960000000006" as="targetPoint" />
          </mxGeometry>
        </mxCell>
        <mxCell id="YofEB-PI3-ipGwh48EZV-9" value="" style="verticalLabelPosition=bottom;html=1;verticalAlign=top;align=center;strokeColor=none;fillColor=#00BEF2;shape=mxgraph.azure.code_file;pointerEvents=1;fontSize=11;" vertex="1" parent="XNGhsaMjTDCV8xivHwK5-1">
          <mxGeometry x="336" y="99" width="50" height="64" as="geometry" />
        </mxCell>
        <mxCell id="YofEB-PI3-ipGwh48EZV-11" value="&lt;font style=&quot;font-size: 12px&quot;&gt;Get IPOS &lt;br&gt;payload update&lt;br&gt;document&lt;/font&gt;" style="text;html=1;align=center;verticalAlign=middle;resizable=0;points=[];autosize=1;strokeColor=none;fontSize=11;" vertex="1" parent="XNGhsaMjTDCV8xivHwK5-1">
          <mxGeometry x="307" y="57" width="100" height="40" as="geometry" />
        </mxCell>
        <mxCell id="YofEB-PI3-ipGwh48EZV-39" value="" style="pointerEvents=1;shadow=0;dashed=0;html=1;strokeColor=none;fillColor=#505050;labelPosition=center;verticalLabelPosition=bottom;verticalAlign=top;outlineConnect=0;align=center;shape=mxgraph.office.concepts.publish;fontSize=11;" vertex="1" parent="XNGhsaMjTDCV8xivHwK5-1">
          <mxGeometry x="470" y="96" width="85.5" height="70" as="geometry" />
        </mxCell>
        <mxCell id="-yCpRgtOWGxdH12r2E7k-0" value="&lt;font style=&quot;font-size: 12px&quot;&gt;Publish item update&lt;/font&gt;" style="text;html=1;align=center;verticalAlign=middle;resizable=0;points=[];autosize=1;strokeColor=none;fontSize=11;" vertex="1" parent="XNGhsaMjTDCV8xivHwK5-1">
          <mxGeometry x="450" y="67" width="120" height="20" as="geometry" />
        </mxCell>
      </root>
    </mxGraphModel>
  </diagram>
</mxfile>
